<svg width="80" height="80" viewBox="0 0 80 80" fill="none" xmlns="http://www.w3.org/2000/svg">
<g clip-path="url(#clip0_16_196)">
<path d="M54.4724 55.138C55.9484 55.138 57.1494 53.9371 57.1494 52.461C57.1494 50.9849 55.9484 49.7839 54.4724 49.7839C52.9963 49.7839 51.7952 50.9849 51.7952 52.461C51.7952 53.9371 52.9963 55.138 54.4724 55.138Z" fill="#0092F9"/>
<path d="M46.2761 48.6198C48.4444 48.6198 50.2083 46.8558 50.2083 44.6875C50.2083 42.5192 48.4444 40.7552 46.2761 40.7552C44.1078 40.7552 42.3438 42.5192 42.3438 44.6875C42.3438 46.8558 44.1078 48.6198 46.2761 48.6198Z" fill="#0092F9"/>
<path d="M37.6563 44.6875C37.6563 42.5192 35.8922 40.7552 33.7239 40.7552C31.5557 40.7552 29.7917 42.5192 29.7917 44.6875C29.7917 46.8558 31.5557 48.6198 33.7239 48.6198C35.8922 48.6198 37.6563 46.8558 37.6563 44.6875Z" fill="#0092F9"/>
<path d="M25.5271 49.7838C24.051 49.7838 22.8501 50.9847 22.8501 52.4608C22.8501 53.9369 24.051 55.1378 25.5271 55.1378C27.0032 55.1378 28.2043 53.9369 28.2043 52.4608C28.2043 50.9847 27.0032 49.7838 25.5271 49.7838Z" fill="#0092F9"/>
<path d="M7.53101 44.756V77.6561C7.53101 78.9505 8.58038 79.9999 9.87476 79.9999H70.1248C71.4191 79.9999 72.4685 78.9505 72.4685 77.6561V44.756L39.9998 12.2874L7.53101 44.756ZM46.2759 36.0675C51.0288 36.0675 54.8955 39.9344 54.8955 44.6874C54.8955 44.8286 54.8916 44.9689 54.8849 45.1085C58.7544 45.3233 61.8368 48.5385 61.8368 52.4608C61.8368 56.5216 58.533 59.8253 54.4723 59.8253C53.7452 59.8253 53.0432 59.7179 52.3793 59.5207C52.3807 59.5972 52.3851 59.673 52.3851 59.7497C52.3851 66.5791 46.829 72.1352 39.9996 72.1352C33.1702 72.1352 27.6141 66.5791 27.6141 59.7497C27.6141 59.6728 27.6185 59.5971 27.6199 59.5205C26.956 59.7177 26.254 59.8252 25.5268 59.8252C21.466 59.8252 18.1623 56.5214 18.1623 52.4607C18.1623 48.5383 21.2448 45.323 25.1143 45.1083C25.1076 44.9688 25.1037 44.8283 25.1037 44.6872C25.1037 39.9343 28.9704 36.0674 33.7234 36.0674C36.1954 36.0674 38.4262 37.115 39.9994 38.7877C41.573 37.1152 43.8038 36.0675 46.2759 36.0675Z" fill="#0092F9"/>
<path d="M40.0002 67.4481C44.2517 67.4481 47.6982 64.0016 47.6982 59.7502C47.6982 55.4987 44.2517 52.0522 40.0002 52.0522C35.7487 52.0522 32.3022 55.4987 32.3022 59.7502C32.3022 64.0016 35.7487 67.4481 40.0002 67.4481Z" fill="#0092F9"/>
<path d="M72.4685 2.34375C72.4685 1.04937 71.4191 0 70.1247 0H60.083C58.7886 0 57.7393 1.04937 57.7393 2.34375V10.1397L72.4685 24.8689V2.34375Z" fill="#0092F9"/>
<path d="M79.313 38.3432L41.6568 0.686988C40.7416 -0.228325 39.2576 -0.228325 38.3423 0.686988L0.685996 38.3432C-0.229316 39.2585 -0.229316 40.7425 0.685996 41.6578C1.60115 42.5731 3.08522 42.5731 4.00053 41.6578L39.9996 5.65886L75.9985 41.6578C76.4562 42.1154 77.056 42.3442 77.6558 42.3442C78.2557 42.3442 78.8555 42.1154 79.313 41.6576C80.2285 40.7425 80.2285 39.2585 79.313 38.3432Z" fill="#0092F9"/>
</g>
<defs>
<clipPath id="clip0_16_196">
<rect width="80" height="80" fill="white"/>
</clipPath>
</defs>
</svg>
