<svg width="46" height="43" viewBox="0 0 46 43" fill="none" xmlns="http://www.w3.org/2000/svg">
<circle cx="30" cy="13" r="30" fill="#33A8FA"/>
<path fill-rule="evenodd" clip-rule="evenodd" d="M18.4831 12.8153C14.8115 13.9974 13.1739 18.0057 14.4048 21.8295C15.0295 23.6301 16.0453 25.2485 17.38 26.5762C19.211 28.3545 21.2225 29.9194 23.3849 31.2491L23.6304 31.3961C23.8656 31.5369 24.1598 31.5344 24.3926 31.3897L24.6218 31.2473C26.7812 29.9194 28.7927 28.3545 30.6174 26.5824C31.9584 25.2485 32.9743 23.6301 33.5937 21.8452C34.8291 18.008 33.1847 13.9978 29.512 12.8153L29.2463 12.7362C27.5624 12.2731 25.773 12.5013 24.2645 13.3553L23.9964 13.5143L23.733 13.3562C22.1419 12.4534 20.2404 12.25 18.4831 12.8153ZM23.3746 14.8543L23.5714 14.9954C23.8307 15.1811 24.1806 15.1774 24.436 14.9863C25.766 13.9906 27.4873 13.7008 29.0641 14.2067C31.9097 15.1228 33.2047 18.281 32.2064 21.382C31.665 22.9417 30.7687 24.3696 29.5916 25.5405L29.0636 26.0421C27.641 27.3642 26.1026 28.561 24.4691 29.6156L24.0013 29.9098L24.144 29.9998C22.0805 28.7308 20.1537 27.2319 18.4058 25.5343C17.2351 24.3696 16.3388 22.9417 15.7921 21.3664C14.7981 18.278 16.0875 15.1221 18.9315 14.2065C20.4333 13.7234 22.0706 13.9629 23.3746 14.8543ZM27.8703 16.4837C27.4855 16.3609 27.0739 16.573 26.951 16.9575C26.8281 17.3419 27.0404 17.7532 27.4252 17.876C28.1814 18.1174 28.7206 18.798 28.7881 19.601C28.822 20.0031 29.1757 20.3017 29.5782 20.2679C29.9807 20.2341 30.2796 19.8807 30.2457 19.4785C30.1288 18.0886 29.1917 16.9055 27.8703 16.4837Z" fill="white"/>
</svg>
