<svg width="48" height="48" viewBox="0 0 48 48" fill="none" xmlns="http://www.w3.org/2000/svg">
<rect x="0.5" y="0.5" width="47" height="47" rx="14.5" fill="white"/>
<path fill-rule="evenodd" clip-rule="evenodd" d="M15.9687 25.9157L25.6592 16.4166C26.906 15.1945 28.9283 15.1945 30.175 16.4166L31.4694 17.6854C32.7162 18.9076 32.7162 20.8898 31.4694 22.112L21.7406 31.6486C21.1843 32.1939 20.4301 32.4999 19.6428 32.4999H15.6585C15.2884 32.4999 14.991 32.201 15.0002 31.8383L15.1004 27.8975C15.1204 27.1526 15.4313 26.4425 15.9687 25.9157ZM30.5381 18.5983L29.2437 17.3295C28.5113 16.6116 27.323 16.6116 26.5905 17.3295L25.8382 18.067L29.7862 21.9361L30.5381 21.1991C31.2705 20.4811 31.2705 19.3163 30.5381 18.5983ZM16.9 26.8287L24.9069 18.9799L28.8549 22.849L20.8093 30.7357L20.7023 30.8317C20.4067 31.0745 20.0322 31.2088 19.6428 31.2088L16.3335 31.2084L16.4171 27.9305C16.4281 27.5169 16.6013 27.1215 16.9 26.8287ZM33 31.8545C33 31.498 32.7052 31.2089 32.3415 31.2089H25.471L25.3816 31.2148C25.0602 31.2576 24.8125 31.5277 24.8125 31.8545C24.8125 32.211 25.1073 32.5 25.471 32.5H32.3415L32.4308 32.4941C32.7523 32.4514 33 32.1813 33 31.8545Z" fill="#200E32"/>
<rect x="0.5" y="0.5" width="47" height="47" rx="14.5" stroke="#CCE9FE"/>
</svg>
