<svg width="118" height="118" viewBox="0 0 118 118" fill="none" xmlns="http://www.w3.org/2000/svg">
<circle cx="59" cy="59" r="51" fill="white"/>
<circle cx="59" cy="59" r="48" stroke="#99D3FD" stroke-width="6"/>
<path d="M2 59C2 47.7265 5.34299 36.7061 11.6062 27.3325C17.8695 17.9589 26.7717 10.6531 37.187 6.33887C47.6024 2.02467 59.0632 0.895884 70.1202 3.09524C81.1771 5.2946 91.3335 10.7233 99.3051 18.6949C107.277 26.6665 112.705 36.8229 114.905 47.8799C117.104 58.9368 115.975 70.3976 111.661 80.813C107.347 91.2283 100.041 100.131 90.6675 106.394C81.2939 112.657 70.2735 116 59 116" stroke="white" stroke-width="4"/>
<path fill-rule="evenodd" clip-rule="evenodd" d="M56.573 59.0138L56.5762 59.7515C56.6015 62.6775 56.7779 65.288 57.0821 66.9424C57.0821 66.9723 57.4139 68.6131 57.6252 69.1593C57.9571 69.9487 58.5571 70.6188 59.3093 71.0433C59.9116 71.3462 60.5434 71.5 61.2047 71.5C61.7246 71.4759 62.582 71.2143 63.1939 70.995L63.7024 70.8001C67.0706 69.4622 73.5091 65.0905 75.975 62.417L76.1568 62.2301L76.9682 61.3545C77.4795 60.6844 77.75 59.8652 77.75 58.9839C77.75 58.1945 77.5091 57.4051 77.0273 56.7671C76.883 56.5604 76.6507 56.2953 76.4439 56.0712L75.6542 55.2446C72.9365 52.4911 67.0524 48.6288 64.0024 47.3491C64.0024 47.3216 62.107 46.5298 61.2047 46.5H61.0843C59.7002 46.5 58.4071 47.2894 57.7457 48.5654C57.565 48.9142 57.3917 49.5975 57.2599 50.1976L57.023 51.3306C56.7525 53.1527 56.573 55.9479 56.573 59.0138ZM43.3818 55.8368C41.6523 55.8368 40.25 57.2527 40.25 58.9991C40.25 60.7455 41.6523 62.1614 43.3818 62.1614L51.0885 61.4798C52.4453 61.4798 53.5453 60.3714 53.5453 58.9991C53.5453 57.6291 52.4453 56.5184 51.0885 56.5184L43.3818 55.8368Z" fill="#353434"/>
</svg>
