<svg width="295" height="210" viewBox="0 0 295 210" fill="none" xmlns="http://www.w3.org/2000/svg">
<g clip-path="url(#clip0_16_284)">
<path opacity="0.1" d="M264.643 178.353C262.446 179.486 260.144 180.464 257.875 181.424C249.485 184.963 240.964 188.54 231.953 189.756C215.021 192.024 197.551 185.852 180.918 189.703C166.985 192.919 155.462 202.773 141.849 207.161C135.52 209.201 128.935 210 122.29 210H121.433C120.615 210 119.8 209.969 118.982 209.938C112.246 209.685 105.481 208.704 98.8773 207.417C78.0254 203.405 56.8032 196.051 40.8611 182.513C87.2802 174.03 182.899 161.013 264.643 178.353Z" fill="#252223"/>
<path opacity="0.3" d="M280.823 76.8406V57.0904H269.096V76.8406H255.209V46.2895H245.026V23.4533H236.694V0H219.412V23.4533H211.08V46.2895H201.205V18.8244H195.65V4.93755H192.256V18.8244H172.506V106.466H157.384V97.2079H148.126V106.466H133.005V76.8406H105.849V57.0904H94.122V76.8406H93.5048V114.798H81.1609V92.579H66.3483V114.798H54.0044V46.2895H44.4379V23.4533H9.2579V46.2895H0V166.951H54.0044H93.5048H133.005H172.506H201.205H255.209H294.71V76.8406H280.823Z" fill="#0092F9"/>
<path opacity="0.4" d="M18.8243 53.3872H5.86328V60.7935H18.8243V53.3872Z" fill="white"/>
<path opacity="0.4" d="M34.8715 60.7935H47.8325V53.3872H34.8715V60.7935Z" fill="white"/>
<path opacity="0.4" d="M18.8243 67.8913H5.86328V75.2976H18.8243V67.8913Z" fill="white"/>
<path opacity="0.4" d="M34.8715 75.2976H47.8325V67.8913H34.8715V75.2976Z" fill="white"/>
<path opacity="0.4" d="M18.8243 82.3953H5.86328V89.8016H18.8243V82.3953Z" fill="white"/>
<path opacity="0.4" d="M34.8715 89.8016H47.8325V82.3953H34.8715V89.8016Z" fill="white"/>
<path opacity="0.4" d="M18.8243 96.8993H5.86328V104.306H18.8243V96.8993Z" fill="white"/>
<path opacity="0.4" d="M34.8715 104.306H47.8325V96.8993H34.8715V104.306Z" fill="white"/>
<path opacity="0.4" d="M18.8243 111.403H5.86328V118.81H18.8243V111.403Z" fill="white"/>
<path opacity="0.4" d="M34.8715 118.81H47.8325V111.403H34.8715V118.81Z" fill="white"/>
<path opacity="0.4" d="M18.8243 125.907H5.86328V133.314H18.8243V125.907Z" fill="white"/>
<path opacity="0.4" d="M34.8715 133.314H47.8325V125.907H34.8715V133.314Z" fill="white"/>
<path opacity="0.4" d="M18.8243 140.411H5.86328V147.818H18.8243V140.411Z" fill="white"/>
<path opacity="0.4" d="M34.8715 147.818H47.8325V140.411H34.8715V147.818Z" fill="white"/>
<path opacity="0.4" d="M88.8758 122.204H58.6333V125.907H88.8758V122.204Z" fill="white"/>
<path opacity="0.4" d="M88.8758 127.759H58.6333V131.462H88.8758V127.759Z" fill="white"/>
<path opacity="0.4" d="M88.8758 133.314H58.6333V137.017H88.8758V133.314Z" fill="white"/>
<path opacity="0.4" d="M167.876 124.056H137.634V127.759H167.876V124.056Z" fill="white"/>
<path opacity="0.4" d="M167.876 129.611H137.634V133.314H167.876V129.611Z" fill="white"/>
<path opacity="0.4" d="M167.876 135.165H137.634V138.869H167.876V135.165Z" fill="white"/>
<path opacity="0.4" d="M88.8758 138.868H58.6333V142.572H88.8758V138.868Z" fill="white"/>
<path opacity="0.4" d="M88.8758 144.423H58.6333V148.126H88.8758V144.423Z" fill="white"/>
<path opacity="0.4" d="M88.8758 149.978H58.6333V153.681H88.8758V149.978Z" fill="white"/>
<path opacity="0.4" d="M108.317 83.9382H99.9854V94.7391H108.317V83.9382Z" fill="white"/>
<path opacity="0.4" d="M118.193 94.7392H126.525V83.9383H118.193V94.7392Z" fill="white"/>
<path opacity="0.4" d="M108.317 101.22H99.9854V112.021H108.317V101.22Z" fill="white"/>
<path opacity="0.4" d="M118.193 112.021H126.525V101.22H118.193V112.021Z" fill="white"/>
<path opacity="0.4" d="M108.317 118.501H99.9854V129.302H108.317V118.501Z" fill="white"/>
<path opacity="0.4" d="M118.193 129.302H126.525V118.501H118.193V129.302Z" fill="white"/>
<path opacity="0.4" d="M108.317 135.783H99.9854V146.583H108.317V135.783Z" fill="white"/>
<path opacity="0.4" d="M118.193 146.583H126.525V135.783H118.193V146.583Z" fill="white"/>
<path opacity="0.4" d="M183.615 25.9221H172.506V40.1175H183.615V25.9221Z" fill="white"/>
<path opacity="0.4" d="M183.615 46.2895H172.506V60.4849H183.615V46.2895Z" fill="white"/>
<path opacity="0.4" d="M183.615 66.6569H172.506V80.8523H183.615V66.6569Z" fill="white"/>
<path opacity="0.4" d="M183.615 87.0242H172.506V101.22H183.615V87.0242Z" fill="white"/>
<path opacity="0.4" d="M183.615 107.392H172.506V121.587H183.615V107.392Z" fill="white"/>
<path opacity="0.4" d="M183.615 127.759H172.506V141.954H183.615V127.759Z" fill="white"/>
<path opacity="0.4" d="M248.883 54.9302H207.531V66.9655H248.883V54.9302Z" fill="white"/>
<path opacity="0.4" d="M249.038 80.8523H207.686V92.8876H249.038V80.8523Z" fill="white"/>
<path opacity="0.4" d="M249.192 106.774H207.84V118.81H249.192V106.774Z" fill="white"/>
<path opacity="0.4" d="M249.346 132.697H207.994V144.732H249.346V132.697Z" fill="white"/>
<path opacity="0.4" d="M14.8126 29.9339H9.25781V41.6605H14.8126V29.9339Z" fill="white"/>
<path opacity="0.4" d="M294.71 83.9382H280.823V101.837H294.71V83.9382Z" fill="white"/>
<path opacity="0.4" d="M294.71 109.86H280.823V127.759H294.71V109.86Z" fill="white"/>
<path opacity="0.4" d="M294.71 135.783H280.823V153.681H294.71V135.783Z" fill="white"/>
<path d="M15.3281 147.988C15.3281 147.988 -8.96775 162.646 35.8189 185.214C35.8189 185.214 45.694 166.895 34.7758 151.959C32.6582 149.047 29.5458 147.013 26.0286 146.242C22.5113 145.471 18.8336 146.018 15.6922 147.778L15.3281 147.988Z" fill="#0092F9"/>
<path d="M15.6089 147.679C15.6089 147.679 36.399 163.587 35.8189 185.214" stroke="#535461" stroke-miterlimit="10"/>
<path d="M36.9483 186.047C36.9483 186.047 29.3352 160.199 38.3771 141.174C42.1698 133.19 43.4288 124.225 41.676 115.56C40.8388 111.446 39.6251 107.417 38.05 103.525" stroke="#535461" stroke-width="2" stroke-miterlimit="10"/>
<path d="M43.6664 91.5173C43.6664 94.6835 37.9327 103.861 37.9327 103.861C37.9327 103.861 32.1959 94.6743 32.1959 91.5173C32.1781 90.753 32.3134 89.9928 32.5936 89.2814C32.8739 88.5701 33.2935 87.9219 33.8278 87.375C34.3622 86.8282 35.0004 86.3936 35.7051 86.097C36.4097 85.8003 37.1666 85.6475 37.9311 85.6475C38.6957 85.6475 39.4526 85.8003 40.1572 86.097C40.8619 86.3936 41.5001 86.8282 42.0345 87.375C42.5688 87.9219 42.9884 88.5701 43.2687 89.2814C43.5489 89.9928 43.6842 90.753 43.6664 91.5173Z" fill="#0092F9"/>
<path d="M53.1588 109.064C51.4369 111.724 41.6296 116.316 41.6296 116.316C41.6296 116.316 41.8055 105.488 43.5275 102.831C44.3639 101.576 45.6608 100.7 47.1377 100.395C48.6145 100.089 50.1524 100.376 51.4185 101.196C52.6846 102.015 53.5771 103.301 53.9028 104.773C54.2285 106.246 53.9613 107.787 53.1588 109.064Z" fill="#0092F9"/>
<path d="M52.7423 139.051C49.9156 140.476 39.1301 139.489 39.1301 139.489C39.1301 139.489 44.7497 130.231 47.5795 128.805C48.9355 128.143 50.4977 128.042 51.9278 128.524C53.3578 129.005 54.5404 130.031 55.2195 131.379C55.8985 132.726 56.0193 134.287 55.5556 135.723C55.092 137.159 54.0812 138.355 52.7423 139.051Z" fill="#0092F9"/>
<path d="M47.3204 161.668C44.7744 163.55 33.9797 164.402 33.9797 164.402C33.9797 164.402 37.9514 154.326 40.5004 152.444C41.7254 151.574 43.2424 151.22 44.7256 151.457C46.2088 151.695 47.5399 152.504 48.4329 153.712C49.3259 154.919 49.7096 156.429 49.5015 157.917C49.2935 159.404 48.5104 160.751 47.3204 161.668Z" fill="#0092F9"/>
<path d="M29.585 116.93C31.8563 119.137 42.4443 121.424 42.4443 121.424C42.4443 121.424 39.8521 110.91 37.5777 108.703C37.0375 108.178 36.3992 107.765 35.6993 107.487C34.9994 107.209 34.2515 107.071 33.4985 107.082C32.7454 107.093 32.0018 107.252 31.3102 107.551C30.6186 107.849 29.9926 108.28 29.4678 108.821C28.943 109.361 28.5297 109.999 28.2516 110.699C27.9734 111.399 27.8359 112.147 27.8468 112.9C27.8577 113.653 28.0168 114.396 28.315 115.088C28.6133 115.78 29.0448 116.406 29.585 116.93Z" fill="#0092F9"/>
<path d="M23.5799 143.46C26.4066 144.889 37.1921 143.902 37.1921 143.902C37.1921 143.902 31.5725 134.644 28.7458 133.218C28.0715 132.861 27.3328 132.642 26.5729 132.574C25.8129 132.506 25.047 132.59 24.32 132.821C23.593 133.053 22.9195 133.427 22.3389 133.922C21.7582 134.417 21.2822 135.023 20.9386 135.704C20.595 136.385 20.3908 137.128 20.3378 137.89C20.2849 138.651 20.3843 139.415 20.6302 140.137C20.8762 140.859 21.2637 141.525 21.7702 142.096C22.2767 142.667 22.8919 143.13 23.5799 143.46Z" fill="#0092F9"/>
<path d="M21.2807 170.049C23.8266 171.931 34.6244 172.783 34.6244 172.783C34.6244 172.783 30.6497 162.707 28.1007 160.825C26.8756 159.956 25.3586 159.602 23.8754 159.839C22.3922 160.076 21.0612 160.885 20.1682 162.093C19.2752 163.301 18.8915 164.811 19.0995 166.298C19.3075 167.786 20.0906 169.132 21.2807 170.049Z" fill="#0092F9"/>
<path opacity="0.25" d="M43.6664 91.5173C43.6664 94.6835 37.9327 103.861 37.9327 103.861C37.9327 103.861 32.1959 94.6743 32.1959 91.5173C32.1781 90.753 32.3134 89.9928 32.5936 89.2814C32.8739 88.5701 33.2935 87.9219 33.8278 87.375C34.3622 86.8282 35.0004 86.3936 35.7051 86.097C36.4097 85.8003 37.1666 85.6475 37.9311 85.6475C38.6957 85.6475 39.4526 85.8003 40.1572 86.097C40.8619 86.3936 41.5001 86.8282 42.0345 87.375C42.5688 87.9219 42.9884 88.5701 43.2687 89.2814C43.5489 89.9928 43.6842 90.753 43.6664 91.5173Z" fill="black"/>
<path opacity="0.25" d="M53.1588 109.064C51.4369 111.724 41.6296 116.316 41.6296 116.316C41.6296 116.316 41.8055 105.488 43.5275 102.831C44.3639 101.576 45.6608 100.7 47.1377 100.395C48.6145 100.089 50.1524 100.376 51.4185 101.196C52.6846 102.015 53.5771 103.301 53.9028 104.773C54.2285 106.246 53.9613 107.787 53.1588 109.064Z" fill="black"/>
<path opacity="0.25" d="M52.7423 139.051C49.9156 140.476 39.1301 139.489 39.1301 139.489C39.1301 139.489 44.7497 130.231 47.5795 128.805C48.9355 128.143 50.4977 128.042 51.9278 128.524C53.3578 129.005 54.5404 130.031 55.2195 131.379C55.8985 132.726 56.0193 134.287 55.5556 135.723C55.092 137.159 54.0812 138.355 52.7423 139.051Z" fill="black"/>
<path opacity="0.25" d="M47.3204 161.668C44.7744 163.55 33.9797 164.402 33.9797 164.402C33.9797 164.402 37.9514 154.326 40.5004 152.444C41.7254 151.574 43.2424 151.22 44.7256 151.457C46.2088 151.695 47.5399 152.504 48.4329 153.712C49.3259 154.919 49.7096 156.429 49.5015 157.917C49.2935 159.404 48.5104 160.751 47.3204 161.668Z" fill="black"/>
<path opacity="0.25" d="M29.585 116.93C31.8563 119.137 42.4443 121.424 42.4443 121.424C42.4443 121.424 39.8521 110.91 37.5777 108.703C37.0375 108.178 36.3992 107.765 35.6993 107.487C34.9994 107.209 34.2515 107.071 33.4985 107.082C32.7454 107.093 32.0018 107.252 31.3102 107.551C30.6186 107.849 29.9926 108.28 29.4678 108.821C28.943 109.361 28.5297 109.999 28.2516 110.699C27.9734 111.399 27.8359 112.147 27.8468 112.9C27.8577 113.653 28.0168 114.396 28.315 115.088C28.6133 115.78 29.0448 116.406 29.585 116.93Z" fill="black"/>
<path opacity="0.25" d="M23.5799 143.46C26.4066 144.889 37.1921 143.902 37.1921 143.902C37.1921 143.902 31.5725 134.644 28.7458 133.218C28.0715 132.861 27.3328 132.642 26.5729 132.574C25.8129 132.506 25.047 132.59 24.32 132.821C23.593 133.053 22.9195 133.427 22.3389 133.922C21.7582 134.417 21.2822 135.023 20.9386 135.704C20.595 136.385 20.3908 137.128 20.3378 137.89C20.2849 138.651 20.3843 139.415 20.6302 140.137C20.8762 140.859 21.2637 141.525 21.7702 142.096C22.2767 142.667 22.8919 143.13 23.5799 143.46Z" fill="black"/>
<path opacity="0.25" d="M21.2807 170.049C23.8266 171.931 34.6244 172.783 34.6244 172.783C34.6244 172.783 30.6497 162.707 28.1007 160.825C26.8756 159.956 25.3586 159.602 23.8754 159.839C22.3922 160.076 21.0612 160.885 20.1682 162.093C19.2752 163.301 18.8915 164.811 19.0995 166.298C19.3075 167.786 20.0906 169.132 21.2807 170.049Z" fill="black"/>
<path d="M274.583 179.372C274.583 179.372 266.97 153.524 276.012 134.499C279.805 126.515 281.067 117.551 279.314 108.885C278.474 104.772 277.26 100.743 275.688 96.85" stroke="#535461" stroke-width="2" stroke-miterlimit="10"/>
<path d="M281.313 84.8426C281.313 88.0088 275.577 97.1864 275.577 97.1864C275.577 97.1864 269.84 87.9995 269.84 84.8426C269.84 83.3211 270.444 81.8619 271.52 80.786C272.596 79.7102 274.055 79.1057 275.577 79.1057C277.098 79.1057 278.557 79.7102 279.633 80.786C280.709 81.8619 281.313 83.3211 281.313 84.8426Z" fill="#0092F9"/>
<path d="M290.794 102.389C289.072 105.049 279.264 109.641 279.264 109.641C279.264 109.641 279.443 98.8125 281.165 96.1555C281.992 94.8787 283.292 93.9826 284.779 93.6643C286.267 93.346 287.82 93.6316 289.096 94.4582C290.373 95.2849 291.269 96.5848 291.588 98.0722C291.906 99.5595 291.62 101.112 290.794 102.389Z" fill="#0092F9"/>
<path d="M290.38 132.376C287.551 133.801 276.765 132.814 276.765 132.814C276.765 132.814 282.388 123.556 285.214 122.13C286.573 121.445 288.148 121.328 289.593 121.804C291.038 122.281 292.235 123.311 292.92 124.67C293.605 126.029 293.722 127.604 293.246 129.049C292.77 130.494 291.739 131.691 290.38 132.376Z" fill="#0092F9"/>
<path d="M284.958 154.993C282.409 156.875 271.614 157.727 271.614 157.727C271.614 157.727 275.589 147.651 278.135 145.769C279.359 144.878 280.885 144.508 282.381 144.738C283.877 144.968 285.222 145.779 286.122 146.996C287.022 148.213 287.405 149.736 287.187 151.234C286.969 152.732 286.168 154.083 284.958 154.993Z" fill="#0092F9"/>
<path d="M267.22 110.246C269.494 112.453 280.079 114.739 280.079 114.739C280.079 114.739 277.487 104.225 275.215 102.019C274.678 101.482 274.039 101.057 273.335 100.768C272.632 100.48 271.878 100.335 271.118 100.34C270.358 100.346 269.607 100.502 268.908 100.801C268.209 101.099 267.576 101.533 267.046 102.079C266.516 102.624 266.1 103.269 265.822 103.976C265.544 104.683 265.408 105.439 265.425 106.199C265.441 106.959 265.608 107.708 265.916 108.403C266.224 109.097 266.667 109.724 267.22 110.246Z" fill="#0092F9"/>
<path d="M261.227 136.785C264.057 138.214 274.842 137.227 274.842 137.227C274.842 137.227 269.223 127.969 266.393 126.543C265.719 126.186 264.98 125.967 264.22 125.899C263.46 125.831 262.694 125.915 261.967 126.146C261.24 126.378 260.567 126.752 259.986 127.247C259.405 127.742 258.929 128.348 258.586 129.029C258.242 129.71 258.038 130.453 257.985 131.215C257.932 131.976 258.031 132.74 258.277 133.462C258.523 134.184 258.911 134.85 259.417 135.421C259.924 135.991 260.539 136.455 261.227 136.785Z" fill="#0092F9"/>
<path d="M258.915 163.374C261.464 165.257 272.259 166.108 272.259 166.108C272.259 166.108 268.284 156.036 265.738 154.15C264.514 153.26 262.988 152.889 261.492 153.119C259.996 153.349 258.652 154.161 257.752 155.378C256.852 156.595 256.469 158.118 256.687 159.616C256.905 161.113 257.706 162.464 258.915 163.374Z" fill="#0092F9"/>
<path d="M240.243 176.857C240.243 176.857 236.151 162.97 241.011 152.743C243.074 148.468 243.697 143.639 242.785 138.98C242.334 136.771 241.681 134.608 240.835 132.518" stroke="#535461" stroke-width="2" stroke-miterlimit="10"/>
<path d="M243.859 126.056C243.859 127.759 240.773 132.697 240.773 132.697C240.773 132.697 237.688 127.759 237.688 126.056C237.688 125.237 238.013 124.452 238.591 123.873C239.17 123.295 239.955 122.97 240.773 122.97C241.592 122.97 242.377 123.295 242.956 123.873C243.534 124.452 243.859 125.237 243.859 126.056Z" fill="#0092F9"/>
<path d="M248.954 135.486C248.028 136.915 242.757 139.384 242.757 139.384C242.757 139.384 242.853 133.564 243.779 132.135C244.24 131.489 244.933 131.045 245.713 130.897C246.494 130.748 247.301 130.906 247.967 131.338C248.634 131.77 249.109 132.442 249.292 133.214C249.476 133.987 249.355 134.801 248.954 135.486Z" fill="#0092F9"/>
<path d="M248.732 151.598C247.211 152.363 241.415 151.833 241.415 151.833C241.415 151.833 244.436 146.858 245.955 146.093C246.68 145.765 247.503 145.73 248.253 145.995C249.003 146.26 249.622 146.805 249.981 147.515C250.339 148.225 250.409 149.047 250.176 149.807C249.944 150.568 249.426 151.21 248.732 151.598Z" fill="#0092F9"/>
<path d="M245.816 163.754C244.449 164.766 238.647 165.223 238.647 165.223C238.647 165.223 240.782 159.81 242.153 158.798C242.476 158.531 242.85 158.332 243.253 158.214C243.655 158.097 244.077 158.062 244.494 158.113C244.91 158.164 245.311 158.299 245.674 158.51C246.036 158.722 246.351 159.005 246.601 159.342C246.85 159.679 247.028 160.064 247.123 160.472C247.219 160.88 247.231 161.304 247.157 161.717C247.084 162.13 246.927 162.523 246.696 162.873C246.466 163.224 246.166 163.523 245.816 163.754Z" fill="#0092F9"/>
<path d="M236.286 139.714C237.521 140.899 243.196 142.127 243.196 142.127C243.196 142.127 241.804 136.477 240.582 135.292C240.296 134.987 239.952 134.744 239.57 134.576C239.187 134.408 238.775 134.32 238.358 134.316C237.94 134.312 237.526 134.393 237.141 134.554C236.756 134.715 236.407 134.952 236.116 135.252C235.825 135.551 235.598 135.907 235.449 136.296C235.299 136.686 235.23 137.102 235.246 137.519C235.262 137.936 235.362 138.346 235.541 138.723C235.72 139.101 235.973 139.438 236.286 139.714Z" fill="#0092F9"/>
<path d="M233.058 153.971C234.58 154.737 240.375 154.209 240.375 154.209C240.375 154.209 237.354 149.234 235.832 148.466C235.107 148.138 234.284 148.103 233.534 148.368C232.784 148.633 232.165 149.178 231.807 149.888C231.448 150.598 231.378 151.42 231.611 152.181C231.843 152.941 232.361 153.583 233.055 153.971H233.058Z" fill="#0092F9"/>
<path d="M231.824 168.262C233.191 169.274 238.993 169.731 238.993 169.731C238.993 169.731 236.848 164.315 235.49 163.303C234.831 162.855 234.023 162.679 233.237 162.813C232.451 162.946 231.747 163.379 231.273 164.02C230.799 164.662 230.592 165.461 230.695 166.252C230.797 167.043 231.202 167.763 231.824 168.262Z" fill="#0092F9"/>
<path opacity="0.1" d="M157.594 52.0541H155.471C155.672 52.0632 155.872 52.0316 156.061 51.961C156.249 51.8905 156.421 51.7825 156.566 51.6436C156.712 51.5048 156.827 51.3379 156.906 51.153C156.985 50.9682 157.026 50.7692 157.026 50.5682C157.026 50.3671 156.985 50.1682 156.906 49.9834C156.827 49.7985 156.712 49.6316 156.566 49.4927C156.421 49.3539 156.249 49.2459 156.061 49.1753C155.872 49.1048 155.672 49.0731 155.471 49.0823H138.273C138.072 49.0731 137.872 49.1048 137.683 49.1753C137.495 49.2459 137.323 49.3539 137.178 49.4927C137.032 49.6316 136.917 49.7985 136.838 49.9834C136.759 50.1682 136.718 50.3671 136.718 50.5682C136.718 50.7692 136.759 50.9682 136.838 51.153C136.917 51.3379 137.032 51.5048 137.178 51.6436C137.323 51.7825 137.495 51.8905 137.683 51.961C137.872 52.0316 138.072 52.0632 138.273 52.0541H140.396C140.002 52.0541 139.623 52.2108 139.344 52.4897C139.065 52.7687 138.909 53.147 138.909 53.5415C138.909 53.936 139.065 54.3143 139.344 54.5933C139.623 54.8722 140.002 55.0289 140.396 55.0289H137.424C137.223 55.0198 137.023 55.0514 136.835 55.122C136.646 55.1925 136.474 55.3005 136.329 55.4394C136.184 55.5782 136.068 55.7452 135.989 55.93C135.91 56.1148 135.869 56.3138 135.869 56.5148C135.869 56.7159 135.91 56.9148 135.989 57.0997C136.068 57.2845 136.184 57.4514 136.329 57.5903C136.474 57.7292 136.646 57.8371 136.835 57.9077C137.023 57.9782 137.223 58.0099 137.424 58.0007H154.622C154.823 58.0099 155.024 57.9782 155.212 57.9077C155.4 57.8371 155.572 57.7292 155.718 57.5903C155.863 57.4514 155.979 57.2845 156.058 57.0997C156.137 56.9148 156.178 56.7159 156.178 56.5148C156.178 56.3138 156.137 56.1148 156.058 55.93C155.979 55.7452 155.863 55.5782 155.718 55.4394C155.572 55.3005 155.4 55.1925 155.212 55.122C155.024 55.0514 154.823 55.0198 154.622 55.0289H157.594C157.79 55.0289 157.983 54.9905 158.163 54.9157C158.344 54.841 158.508 54.7314 158.646 54.5933C158.784 54.4552 158.894 54.2912 158.968 54.1107C159.043 53.9303 159.082 53.7368 159.082 53.5415C159.082 53.3462 159.043 53.1528 158.968 52.9723C158.894 52.7918 158.784 52.6279 158.646 52.4897C158.508 52.3516 158.344 52.2421 158.163 52.1673C157.983 52.0926 157.79 52.0541 157.594 52.0541Z" fill="#252223"/>
<path d="M217.715 163.198C217.838 163.198 217.955 163.15 218.042 163.063C218.129 162.976 218.178 162.858 218.178 162.735C218.178 162.613 218.129 162.495 218.042 162.408C217.955 162.321 217.838 162.273 217.715 162.273C217.592 162.273 217.474 162.321 217.388 162.408C217.301 162.495 217.252 162.613 217.252 162.735C217.252 162.858 217.301 162.976 217.388 163.063C217.474 163.15 217.592 163.198 217.715 163.198Z" fill="#535461"/>
<g opacity="0.5">
<path opacity="0.5" d="M161.097 136.711L156.613 115.603H157.073L157.002 115.245H157.131L154.811 103.827C154.811 103.827 154.928 91.9002 155.493 87.2866C155.906 83.9198 156.56 79.6303 156.082 76.0198C156.148 75.9202 156.209 75.8172 156.264 75.7112C156.462 75.3271 156.582 74.9075 156.616 74.4768C156.789 73.4676 156.653 72.4298 156.227 71.4988L160.89 68.5857C160.995 68.5857 161.103 68.6073 161.199 68.6135C161.199 68.5702 161.155 68.5024 161.121 68.4129C163.327 68.5289 165.513 67.9373 167.359 66.7244C169.205 65.5115 170.616 63.7407 171.385 61.67C171.796 62.2865 172.303 62.8325 172.888 63.2871C174.144 64.2283 176.122 64.4381 177.169 63.2686C177.55 62.8018 177.807 62.2469 177.918 61.6546C177.98 61.3892 178.023 61.1176 178.06 60.8492C178.653 57.6953 177.354 54.4427 175.678 51.6777C173.583 48.2245 170.802 45.0984 167.269 43.1357C163.735 41.173 159.4 40.4694 155.576 41.7779C151.752 43.0863 147.901 46.6383 147.552 50.6655C147.38 52.7238 147.627 53.6774 147.201 55.6987C146.988 56.7047 147.448 58.6643 147.441 59.7753C147.404 59.9793 147.379 60.1854 147.367 60.3924C147.306 61.6268 147.796 62.7933 148.154 63.9783C143.112 64.2314 129.851 65.2528 126.022 69.1473C121.257 73.9892 109.574 75.7204 109.574 75.7204L90.1165 79.6365L83.3274 82.5188L83.4045 82.8274L83.2687 82.886C83.2687 82.886 83.5094 83.7841 83.8551 84.9691C82.3405 86.34 81.3489 88.1943 81.0499 90.2152C80.6734 92.3106 80.874 95.0077 82.201 98.4486C82.201 98.4486 88.9006 110.752 89.3635 115.715L97.8191 132.592C97.0939 134.039 89.848 148.666 88.6013 156.854C88.5026 157.443 88.4357 158.037 88.4007 158.634C88.4007 158.634 88.3544 159.066 88.2402 159.785C87.7434 162.819 86.1726 170.278 82.3368 173.765L82.3861 173.808L82.275 173.916L82.3615 173.99C81.2104 176.19 82.8737 179.171 82.8737 179.171L84.7654 187.621L86.8824 187.963L89.1105 187.056L90.3448 189.429C90.3448 189.429 99.9576 190.972 102.689 190.882C105.42 190.793 100.374 186.164 98.606 184.791C97.6246 184.032 96.8562 180.912 96.3687 178.286C96.6261 178.077 96.8572 177.837 97.0568 177.573C97.0568 177.573 95.8811 171.401 99.4207 162.933C100.93 159.328 102.553 155.184 103.926 151.614C104.664 156.409 105.438 161.35 106.009 164.723C106.839 169.608 106.731 172.589 106.475 174.271C106.428 174.857 106.289 175.433 106.065 175.977C106.076 175.993 106.086 176.01 106.096 176.027C106.079 176.07 106.06 176.113 106.037 176.153C106.055 176.184 106.074 176.212 106.089 176.243C104.158 178.452 106.17 182.057 106.17 182.057L108.061 190.481L110.178 190.824L112.406 189.917L113.641 192.29C113.641 192.29 123.254 193.833 125.985 193.743C128.716 193.654 123.67 189.025 121.899 187.651C120.519 186.581 119.563 180.831 119.208 178.366C119.464 178.341 119.606 178.323 119.606 178.323L119.578 178.153H119.637L118.427 171.08C116.36 169.299 116.647 144.004 116.647 144.004C116.647 144.004 115.57 146.648 115.536 146.435C115.641 146.009 116.029 144.806 116.93 142.242C117.46 140.771 117.851 139.254 118.1 137.711C119.078 131.691 117.254 128.009 117.254 128.009C117.375 126.799 116.1 122.099 114.594 117.094L119.325 107.873C119.983 108.121 120.697 108.179 121.387 108.043L124.969 101.562C124.969 101.562 132.376 97.1494 134.496 97.4919C136.468 97.8005 142.646 96.4489 145.034 93.8752C145.206 93.6871 145.363 93.4859 145.503 93.2734C147.426 90.3263 146.636 108.66 146.636 108.66L145.608 115.011L145.553 115.363L148.617 115.424L155.838 140.192C155.838 140.192 156.292 148.592 164.498 150.459C172.703 152.326 161.097 136.711 161.097 136.711ZM111.774 108.086C111.329 106.716 110.941 105.534 110.647 104.648L112.175 103.457C112.175 103.457 112.366 103.618 112.69 103.874L111.774 108.086Z" fill="url(#paint0_linear_16_284)"/>
</g>
<path d="M119.22 175.687C119.22 175.687 120.266 184.501 121.998 185.84C123.729 187.179 128.642 191.676 125.979 191.774C123.315 191.873 113.943 190.361 113.943 190.361L112.731 188.047L110.57 188.929L108.506 188.596L106.654 180.359C106.654 180.359 104.056 175.706 107.713 173.826C111.37 171.947 119.22 175.687 119.22 175.687Z" fill="#3A384D"/>
<path opacity="0.1" d="M110.428 103.429C110.428 103.429 117.696 125.059 117.421 127.836C117.421 127.836 120.084 133.206 117.146 141.553C114.209 149.901 116.838 143.445 116.838 143.445C116.838 143.445 116.56 168.099 118.572 169.836L119.751 176.73C119.751 176.73 108.419 178.076 106.512 174.592C106.512 174.592 107.987 172.009 106.543 163.482C105.099 154.956 102.315 136.168 102.315 136.168L94.7732 93.3135L110.428 103.429Z" fill="black"/>
<path d="M110.456 103.257C110.456 103.257 117.723 124.898 117.449 127.676C117.449 127.676 120.112 133.045 117.174 141.393C114.236 149.74 116.865 143.285 116.865 143.285C116.865 143.285 116.588 167.941 118.6 169.676L119.779 176.573C119.779 176.573 108.447 177.915 106.54 174.431C106.54 174.431 108.015 171.848 106.571 163.322C105.126 154.795 102.34 135.999 102.34 135.999L94.8008 93.1407L110.456 103.257Z" fill="#BEC7DE"/>
<path opacity="0.1" d="M96.6712 94.2638L104.062 136.276C104.062 136.276 106.839 155.073 108.293 163.599C109.746 172.126 108.262 174.709 108.262 174.709C108.818 175.724 110.166 176.326 111.802 176.675C109.506 176.406 107.435 175.78 106.713 174.459C106.713 174.459 108.191 171.876 106.747 163.349C105.303 154.823 102.516 136.026 102.516 136.026L94.9739 93.1683L96.6712 94.2638Z" fill="black"/>
<path d="M96.5569 172.907C96.5569 172.907 97.5999 181.72 99.3342 183.06C101.069 184.399 105.978 188.895 103.315 188.994C100.652 189.093 91.2799 187.58 91.2799 187.58L90.0671 185.266L87.9069 186.152L85.8424 185.815L83.9908 177.579C83.9908 177.579 81.3924 172.925 85.0462 171.046C88.7 169.166 96.5569 172.907 96.5569 172.907Z" fill="#3A384D"/>
<path opacity="0.1" d="M110.428 103.429C110.428 103.429 117.696 125.059 117.421 127.836C117.421 127.836 120.084 133.206 117.146 141.553C114.209 149.901 116.838 143.445 116.838 143.445C116.838 143.445 116.56 168.099 118.572 169.836L119.751 176.73C119.751 176.73 108.419 178.076 106.512 174.592C106.512 174.592 107.987 172.009 106.543 163.482C105.099 154.956 102.315 136.168 102.315 136.168L94.7732 93.3135L110.428 103.429Z" fill="black"/>
<path opacity="0.1" d="M87.3978 84.3579C87.3978 84.3579 79.3095 87.4624 83.6607 98.7509C83.6607 98.7509 90.1937 110.743 90.6473 115.582L98.9177 132.092C98.9177 132.092 90.098 149.546 89.7061 157.421C89.7061 157.421 88.5273 167.994 83.7687 172.339C83.7687 172.339 94.0049 181.05 97.8161 176.02C97.8161 176.02 96.6712 170.015 100.124 161.751C103.578 153.487 107.673 142.34 107.673 142.34C107.673 142.34 117.576 135.647 110.978 121.877L103.571 91.218L103.451 84.3178L97.7698 82.3428L87.3978 84.3579Z" fill="black"/>
<path opacity="0.1" d="M87.0272 84.4722C87.0272 84.4722 78.9389 87.5767 83.2901 98.8652C83.2901 98.8652 89.82 110.86 90.2737 115.699L98.544 132.209C98.544 132.209 89.7244 149.66 89.3386 157.539C89.3386 157.539 88.1598 168.108 83.3981 172.456C83.3981 172.456 93.6343 181.168 97.4485 176.138C97.4485 176.138 96.3005 170.129 99.7537 161.868C103.207 153.607 107.302 142.445 107.302 142.445C107.302 142.445 117.208 135.752 110.61 121.982L103.204 91.323L103.084 84.4228L97.4053 82.4478L87.0272 84.4722Z" fill="black"/>
<path d="M87.055 84.3023C87.055 84.3023 78.9667 87.4099 83.3179 98.6953C83.3179 98.6953 88.1166 107.506 89.7707 113.07C90.4927 115.46 91.4221 117.782 92.5481 120.01L98.5719 132.045C98.5719 132.045 89.7522 149.5 89.3633 157.375C89.3633 157.375 88.1845 167.947 83.4229 172.292C83.4229 172.292 93.659 181.004 97.4733 175.974C97.4733 175.974 96.3253 169.969 99.7785 161.705C103.232 153.44 107.327 142.281 107.327 142.281C107.327 142.281 117.233 135.588 110.635 121.818L103.229 91.1594L103.108 84.2591L97.4301 82.2841L87.055 84.3023Z" fill="#BEC7DE"/>
<path opacity="0.1" d="M87.055 84.3025L97.4393 82.275L98.7941 82.7472L89.1196 84.6327C89.1196 84.6327 81.0312 87.7372 85.3825 99.0256C85.3825 99.0256 90.178 107.836 91.8352 113.4C92.5573 115.79 93.4866 118.112 94.6126 120.34L100.639 132.376C100.639 132.376 91.8074 149.824 91.4278 157.699C91.4278 157.699 90.2459 168.272 85.4874 172.617C85.4874 172.617 89.8972 176.369 94.0046 177.526C89.4744 177.434 83.4229 172.28 83.4229 172.28C88.1845 167.935 89.3633 157.363 89.3633 157.363C89.7522 149.487 98.5719 132.033 98.5719 132.033L92.5481 119.998C91.4221 117.77 90.4927 115.447 89.7707 113.058C88.1166 107.503 83.3179 98.6831 83.3179 98.6831C78.9667 87.41 87.055 84.3025 87.055 84.3025Z" fill="black"/>
<path d="M120.38 106.271L113.94 118.816C113.94 118.816 115.828 135.529 112.221 136.005C108.613 136.48 110.061 117.662 110.061 117.662L113.532 101.636L120.38 106.271Z" fill="#BE7C5E"/>
<path d="M155.582 114.431L160.187 136.168C160.187 136.168 171.487 151.404 163.489 149.583C155.49 147.762 155.048 139.563 155.048 139.563L147.333 113.085L155.582 114.431Z" fill="#BE7C5E"/>
<path d="M160.171 69.6504L148.784 76.8098L144.719 65.9194C144.719 65.9194 154.144 66.5613 155.243 63.0341C156.341 59.5068 160.171 69.6504 160.171 69.6504Z" fill="#BE7C5E"/>
<path d="M154.323 74.1775L153.595 71.0576L142.371 71.7149L137.85 89.8634L146.272 90.1658L150.987 82.812L153.558 75.6402L154.323 74.1775Z" fill="#BE7C5E"/>
<path opacity="0.1" d="M150.441 70.9031L151.367 65.6724C151.367 65.6724 130.595 65.9316 125.95 70.6501C121.306 75.3685 109.919 77.0596 109.919 77.0596L90.9525 80.8739L84.3208 83.6852C84.3208 83.6852 86.1909 90.6903 86.9932 91.1748C87.7956 91.6593 96.7511 84.2808 96.7511 84.2808L100.146 85.1819L89.0917 96.8036L109.493 116.862L109.87 105.808L112.483 103.766C112.483 103.766 118.695 109.012 121.467 108.216L124.96 101.899C124.96 101.899 132.181 97.5967 134.246 97.93C136.168 98.2386 142.192 96.9147 144.519 94.4058C144.682 94.23 144.831 94.0411 144.963 93.8411C146.839 90.9681 146.068 108.839 146.068 108.839L145.012 115.372L156.267 115.603L154.008 104.475C154.008 104.475 154.122 92.8505 154.672 88.3512C155.221 83.8518 156.215 77.6645 154.199 73.807L150.237 77.5781L143.343 88.6443L145.96 79.0099L150.441 70.9031Z" fill="black"/>
<path d="M150.499 70.5575L149.515 65.191C149.515 65.191 130.663 65.586 126.018 70.3045C121.374 75.0229 109.971 76.7109 109.971 76.7109L91.0051 80.5283L84.4011 83.3427C84.4011 83.3427 86.2712 90.3478 87.0736 90.8292C87.8759 91.3107 96.8345 83.9383 96.8345 83.9383L100.229 84.8394L89.1751 96.4611L109.576 116.52L109.953 105.463L112.576 103.417C112.576 103.417 118.788 108.663 121.559 107.87L125.053 101.553C125.053 101.553 132.234 97.2511 134.31 97.5937C136.233 97.9023 142.257 96.5753 144.584 94.0664C144.747 93.8906 144.896 93.7017 145.028 93.5017C146.904 90.6287 146.133 108.503 146.133 108.503L145.077 115.036L156.332 115.267L154.073 104.139C154.073 104.139 154.187 92.5111 154.736 88.0148C155.286 83.5186 156.279 77.3251 154.264 73.4707L150.302 77.2263L143.399 88.2833L146.016 78.6489L150.499 70.5575Z" fill="#7FAFF2"/>
<path opacity="0.1" d="M126.722 77.39C126.722 77.39 115.486 86.867 114.31 91.9712L126.722 77.39Z" fill="black"/>
<path opacity="0.1" d="M138.989 85.5584C138.989 85.5584 130.348 92.1006 128.805 96.2605L138.989 85.5584Z" fill="black"/>
<path opacity="0.1" d="M113.755 95.4089C113.755 95.4089 112.943 99.3342 112.783 101.427L113.755 95.4089Z" fill="black"/>
<path opacity="0.1" d="M109.648 104.448C109.648 104.448 96.705 92.8289 94.8936 93.0666L109.648 104.448Z" fill="black"/>
<path opacity="0.1" d="M155.378 63.2315C156.431 59.8555 159.986 69.0085 160.285 69.7954C159.947 69.7764 159.61 69.7393 159.276 69.6843C157.926 69.4684 156.635 68.9796 155.48 68.248C154.326 67.5163 153.332 66.557 152.561 65.4287C153.946 64.9936 155.051 64.3054 155.378 63.2315Z" fill="black"/>
<path d="M160.751 69.6164C166.331 69.6164 170.855 65.0929 170.855 59.5129C170.855 53.933 166.331 49.4095 160.751 49.4095C155.171 49.4095 150.648 53.933 150.648 59.5129C150.648 65.0929 155.171 69.6164 160.751 69.6164Z" fill="#BE7C5E"/>
<path opacity="0.1" d="M168.957 60.9694C169.75 62.2748 170.472 63.6913 171.697 64.6047C172.922 65.5182 174.851 65.7249 175.869 64.5862C176.239 64.1306 176.49 63.5895 176.597 63.0124C177.344 59.8307 176.039 56.5318 174.345 53.7267C172.302 50.3599 169.589 47.314 166.148 45.3946C162.707 43.4751 158.477 42.7931 154.749 44.0707C151.021 45.3483 147.96 48.7614 147.651 52.6867C147.481 54.6926 147.987 56.7386 147.571 58.7105C147.355 59.7381 146.889 60.7164 146.836 61.7656C146.738 63.7129 148.071 65.5243 147.95 67.4716C147.876 68.672 147.262 69.7614 146.886 70.9063C145.96 73.6651 146.46 76.6678 146.269 79.5686C146.077 82.4694 144.809 85.722 142.031 86.5799C145.102 88.1229 149.336 86.4996 150.586 83.2964C150.965 82.3182 151.104 81.2319 151.681 80.3555C152.656 78.8742 154.684 78.2879 155.502 76.714C156.32 75.1402 155.61 73.2238 154.715 71.6963C153.82 70.1687 152.703 68.6319 152.684 66.8636C152.691 66.0002 152.96 65.1592 153.456 64.4525C153.952 63.7458 154.652 63.2069 155.462 62.9074C156.304 62.6143 157.214 62.5988 158.1 62.5001C160.297 62.2178 162.396 61.4171 164.223 60.164C166.596 58.6118 167.231 58.1304 168.957 60.9694Z" fill="black"/>
<path d="M169.022 60.5281C169.815 61.8366 170.537 63.2499 171.762 64.1665C172.987 65.083 174.916 65.2867 175.934 64.1479C176.304 63.692 176.554 63.1511 176.662 62.5741C177.409 59.3925 176.104 56.0936 174.41 53.2884C172.367 49.9185 169.654 46.8758 166.213 44.9563C162.772 43.0368 158.542 42.3579 154.814 43.6324C151.086 44.9069 147.333 48.3725 147.003 52.2978C146.833 54.3037 147.077 55.2326 146.661 57.2014C146.445 58.229 146.948 60.2874 146.895 61.3304C146.796 63.2777 148.13 65.0892 148.009 67.0364C147.935 68.2368 147.321 69.3262 146.945 70.468C146.019 73.2299 146.519 76.2326 146.327 79.1334C146.136 82.0342 144.868 85.2837 142.09 86.1416C145.161 87.6846 149.395 86.0614 150.645 82.8582C151.024 81.883 151.163 80.7967 151.74 79.9203C152.715 78.439 154.743 77.8527 155.561 76.2789C156.378 74.705 155.669 72.7856 154.777 71.258C153.885 69.7304 152.762 68.1967 152.743 66.4254C152.75 65.5625 153.02 64.7222 153.516 64.0161C154.012 63.31 154.711 62.7716 155.52 62.4723C156.363 62.1791 157.273 62.1637 158.159 62.0649C160.356 61.7813 162.454 60.9807 164.282 59.7288C166.667 58.1704 167.303 57.6921 169.022 60.5281Z" fill="#723647"/>
<path d="M148.054 66.3767L152.34 67.0694C152.673 67.1232 152.987 66.8975 153.041 66.5652C153.094 66.2329 152.868 65.9199 152.535 65.866L148.248 65.1733C147.915 65.1195 147.602 65.3452 147.548 65.6775C147.494 66.0098 147.721 66.3228 148.054 66.3767Z" fill="#252A62"/>
<path d="M139.22 151.66C139.291 156.492 143.368 160.3 148.201 160.3H148.873C149.468 160.299 150.039 160.529 150.466 160.942C150.789 161.245 151.014 161.639 151.111 162.072C151.157 162.246 151.179 162.426 151.179 162.606V171.138C151.175 172.779 151.645 174.386 152.53 175.767C153.819 177.724 154.517 180.01 154.542 182.353C154.542 182.9 154.651 183.441 154.863 183.945C155.074 184.45 155.384 184.907 155.774 185.29C156.164 185.673 156.627 185.975 157.135 186.178C157.643 186.38 158.186 186.479 158.733 186.469C160.992 186.429 162.763 184.485 162.763 182.223V180.091L163.887 180.22V182.359C163.887 182.905 163.996 183.446 164.208 183.95C164.419 184.453 164.729 184.91 165.119 185.292C165.508 185.675 165.971 185.976 166.478 186.178C166.985 186.38 167.528 186.479 168.074 186.469C170.336 186.429 172.108 184.485 172.108 182.223V181.143C173.228 181.612 179.582 181.612 181.344 181.143L181.822 181.106V182.34C181.82 182.888 181.928 183.431 182.139 183.937C182.35 184.443 182.659 184.901 183.05 185.286C183.44 185.67 183.903 185.973 184.412 186.176C184.921 186.38 185.465 186.479 186.013 186.469C188.272 186.429 190.043 184.485 190.043 182.223V180.452L190.417 180.418V182.362C190.418 182.908 190.528 183.449 190.74 183.952C190.952 184.455 191.262 184.911 191.652 185.293C192.042 185.676 192.504 185.977 193.011 186.178C193.519 186.38 194.061 186.479 194.607 186.469C195.603 186.436 196.555 186.048 197.29 185.375C198.026 184.702 198.497 183.789 198.619 182.8C198.642 182.609 198.655 182.416 198.656 182.223V173.299C198.659 170.233 197.632 167.255 195.74 164.843C195.412 164.416 195.228 163.896 195.216 163.358C195.203 162.82 195.362 162.292 195.669 161.85C197.761 158.785 200.856 153.613 200.755 149.947C200.776 148.953 200.427 147.986 199.776 147.234C199.736 147.188 199.693 147.145 199.653 147.102C196.641 143.948 191.339 146.429 191.799 150.765C191.955 152.217 191.851 153.685 191.491 155.101C191.282 155.899 191 156.677 190.648 157.424C190.296 158.174 189.717 158.794 188.993 159.196C188.269 159.599 187.437 159.764 186.615 159.668C186.056 159.599 185.493 159.565 184.93 159.566H167.648C166.634 159.566 165.645 159.249 164.82 158.658C163.996 158.068 163.377 157.234 163.05 156.273C162.875 155.77 162.786 155.241 162.788 154.709V141.254C162.788 140.903 162.718 140.556 162.581 140.234C162.445 139.911 162.245 139.619 161.993 139.375C161.742 139.13 161.444 138.939 161.117 138.813C160.79 138.686 160.441 138.626 160.091 138.637C159.749 138.649 159.413 138.73 159.103 138.875C158.793 139.02 158.515 139.225 158.286 139.479C157.818 139.995 157.558 140.666 157.557 141.362C157.558 141.544 157.522 141.724 157.453 141.893C157.383 142.061 157.281 142.214 157.152 142.343C157.024 142.471 156.871 142.573 156.702 142.643C156.534 142.712 156.354 142.748 156.172 142.748H148.003C146.839 142.747 145.686 142.979 144.612 143.428C143.538 143.878 142.564 144.536 141.747 145.366C140.929 146.195 140.285 147.178 139.851 148.259C139.418 149.34 139.203 150.496 139.22 151.66Z" fill="#F3AD55"/>
<path d="M190.558 183.384C190.79 184.279 191.317 185.071 192.053 185.631C192.79 186.191 193.694 186.486 194.619 186.469C195.616 186.436 196.567 186.048 197.302 185.375C198.038 184.702 198.509 183.789 198.631 182.8C196.113 182.131 192.663 181.668 190.558 183.384Z" fill="#FBDCA3"/>
<path d="M181.949 183.384C182.181 184.28 182.708 185.072 183.446 185.632C184.183 186.191 185.087 186.487 186.013 186.47C187.006 186.432 187.953 186.042 188.685 185.37C189.417 184.698 189.885 183.787 190.006 182.8C187.519 182.131 184.078 181.668 181.949 183.384Z" fill="#FBDCA3"/>
<path d="M164.019 183.384C164.251 184.279 164.777 185.071 165.514 185.631C166.251 186.191 167.155 186.486 168.08 186.469C169.076 186.436 170.028 186.048 170.763 185.375C171.499 184.702 171.97 183.789 172.092 182.8C169.574 182.131 166.13 181.668 164.019 183.384Z" fill="#FBDCA3"/>
<path d="M154.668 183.384C154.9 184.28 155.427 185.072 156.165 185.632C156.902 186.192 157.807 186.487 158.733 186.47C159.726 186.432 160.673 186.042 161.405 185.37C162.137 184.698 162.605 183.787 162.726 182.8C160.239 182.131 156.789 181.668 154.668 183.384Z" fill="#FBDCA3"/>
<path d="M191.466 155.101C194.369 153.934 197.912 151.799 200.723 149.947C200.745 148.953 200.396 147.986 199.745 147.234C199.705 147.188 199.662 147.145 199.622 147.102C196.61 143.948 191.308 146.429 191.768 150.765C191.926 152.217 191.824 153.685 191.466 155.101Z" fill="#FBDCA3"/>
<path d="M187.951 159.591C187.951 159.591 179.955 169.657 166.874 159.566L187.951 159.591Z" fill="#FBDCA3"/>
<path d="M162.763 140.881C162.763 140.881 157.906 147.235 162.763 155.076V140.881Z" fill="#FBDCA3"/>
<path d="M151.179 162.556C151.179 162.556 155.459 167.871 151.234 172.098L151.179 162.556Z" fill="#FBDCA3"/>
<path opacity="0.1" d="M150.805 161.433C151.114 161.742 151.015 162.019 151.114 162.458L165.001 158.819C164.254 158.242 163.325 157.56 163.019 156.659C161.359 157.94 158.066 160.106 150.805 161.433Z" fill="black"/>
<path d="M150.466 160.955C150.789 161.258 151.014 161.651 151.111 162.084L164.655 158.554C163.899 157.971 163.332 157.178 163.025 156.273C161.359 157.566 157.727 159.622 150.466 160.955Z" fill="#383F4D"/>
<path opacity="0.1" d="M162.517 157.02C162.517 157.02 158.279 160.208 151.179 161.196L162.517 157.02Z" fill="black"/>
<path d="M162.517 156.647C162.517 156.647 158.279 159.835 151.179 160.822L162.517 156.647Z" fill="#F3AD55"/>
<path opacity="0.1" d="M151.925 156.949C151.925 156.949 144.828 159.193 142.958 152.092L151.925 156.949Z" fill="black"/>
<path d="M151.925 156.576C151.925 156.576 144.828 158.819 142.958 151.718L151.925 156.576Z" fill="#FBDCA3"/>
<path d="M139.22 152.092C139.633 152.092 139.967 151.506 139.967 150.783C139.967 150.061 139.633 149.475 139.22 149.475C138.808 149.475 138.473 150.061 138.473 150.783C138.473 151.506 138.808 152.092 139.22 152.092Z" fill="#383F4D"/>
<path opacity="0.1" d="M195.836 177.69L194.342 165.732C194.342 165.732 198.826 172.83 195.836 177.69Z" fill="black"/>
<path d="M193.969 165.732C193.969 165.732 198.452 172.83 195.462 177.69L193.969 165.732Z" fill="#FBDCA3"/>
</g>
<defs>
<linearGradient id="paint0_linear_16_284" x1="78.2404" y1="107.632" x2="171.69" y2="122.734" gradientUnits="userSpaceOnUse">
<stop stop-color="#808080" stop-opacity="0.25"/>
<stop offset="0.54" stop-color="#808080" stop-opacity="0.12"/>
<stop offset="1" stop-color="#808080" stop-opacity="0.1"/>
</linearGradient>
<clipPath id="clip0_16_284">
<rect width="294.71" height="210" fill="white"/>
</clipPath>
</defs>
</svg>
